HIERARCHY
ROOT SpineBase
{
  OFFSET 0.000000 0.000000 0.000000
  CHANNELS 6 Xposition Yposition Zposition Zrotation Xrotation Yrotation
  JOINT SpineMid
  {
    OFFSET 0.000000 30.070303 0.000000
    CHANNELS 3 Zrotation Xrotation Yrotation
    JOINT SpineShoulder
    {
      OFFSET 0.209459 22.257590 -0.772721
      CHANNELS 3 Zrotation Xrotation Yrotation
      JOINT Neck
      {
        OFFSET 0.159558 7.379296 -0.544810
        CHANNELS 3 Zrotation Xrotation Yrotation
        JOINT Head
        {
          OFFSET 4.878373 13.497105 2.415522
          CHANNELS 3 Zrotation Xrotation Yrotation
          End Site
          {
            OFFSET 0 0 0
          }
        }
      }
      JOINT ShoulderLeft
      {
        OFFSET -9.613449 -2.754318 -12.745464
        CHANNELS 3 Zrotation Xrotation Yrotation
        JOINT ElbowLeft
        {
          OFFSET -6.452891 -24.769158 -4.168470
          CHANNELS 3 Zrotation Xrotation Yrotation
          JOINT WristLeft
          {
            OFFSET 2.531217 -22.976265 -1.332096
            CHANNELS 3 Zrotation Xrotation Yrotation
            JOINT HandLeft
            {
              OFFSET 1.761858 -3.724477 0.873208
              CHANNELS 3 Zrotation Xrotation Yrotation
              JOINT HandTipLeft
              {
                OFFSET 1.065656 -6.821630 0.432690
                CHANNELS 3 Zrotation Xrotation Yrotation
                End Site
                {
                  OFFSET 0 0 0
                }
              }
              JOINT ThumbLeft
              {
                OFFSET 3.653257 -0.433779 -1.253699
                CHANNELS 3 Zrotation Xrotation Yrotation
                End Site
                {
                  OFFSET 0 0 0
                }
              }
            }
          }
        }
      }
      JOINT ShoulderRight
      {
        OFFSET 11.754475 -5.820925 10.983479
        CHANNELS 3 Zrotation Xrotation Yrotation
        JOINT ElbowRight
        {
          OFFSET -0.065752 -28.431419 9.815353
          CHANNELS 3 Zrotation Xrotation Yrotation
          JOINT WristRight
          {
            OFFSET 1.339993 -21.592619 -8.984260
            CHANNELS 3 Zrotation Xrotation Yrotation
            JOINT HandRight
            {
              OFFSET -1.167389 -2.550396 0.051663
              CHANNELS 3 Zrotation Xrotation Yrotation
              JOINT HandTipRight
              {
                OFFSET -0.491420 -4.302595 -1.541306
                CHANNELS 3 Zrotation Xrotation Yrotation
                End Site
                {
                  OFFSET 0 0 0
                }
              }
              JOINT ThumbRight
              {
                OFFSET -1.864476 0.252599 -2.972520
                CHANNELS 3 Zrotation Xrotation Yrotation
                End Site
                {
                  OFFSET 0 0 0
                }
              }
            }
          }
        }
      }
    }
  }
  JOINT HipLeft
  {
    OFFSET -4.357548 1.927630 -7.991384
    CHANNELS 3 Zrotation Xrotation Yrotation
    JOINT KneeLeft
    {
      OFFSET -7.198196 -27.234065 0.115048
      CHANNELS 3 Zrotation Xrotation Yrotation
      JOINT AnkleLeft
      {
        OFFSET -5.965548 -34.274721 5.676432
        CHANNELS 3 Zrotation Xrotation Yrotation
        JOINT FootLeft
        {
          OFFSET 8.092748 -4.352150 -9.770475
          CHANNELS 3 Zrotation Xrotation Yrotation
          End Site
          {
            OFFSET 0 0 0
          }
        }
      }
    }
  }
  JOINT HipRight
  {
    OFFSET 5.301709 -0.164674 0.961364
    CHANNELS 3 Zrotation Xrotation Yrotation
    JOINT KneeRight
    {
      OFFSET -4.671043 -28.119635 7.651981
      CHANNELS 3 Zrotation Xrotation Yrotation
      JOINT AnkleRight
      {
        OFFSET -9.672980 -28.538625 2.291665
        CHANNELS 3 Zrotation Xrotation Yrotation
        JOINT FootRight
        {
          OFFSET 4.752723 -8.330543 -1.424021
          CHANNELS 3 Zrotation Xrotation Yrotation
          End Site
          {
            OFFSET 0 0 0
          }
        }
      }
    }
  }
}
MOTION
Frames: 10
Frame Time: 0.033333
-44.715439 68.123440 330.908025 -0.000000 0.000000 -42.826106 -0.000000 0.000000 42.826106 -0.000000 0.000000 0.000000 -0.000000 0.000000 0.000000 0.000000 0.000000 0.000000 -0.000000 0.000000 0.000000 -0.000000 0.000000 0.000000 -0.000000 0.000000 0.000000 -0.000000 0.000000 0.000000 0.000000 0.000000 0.000000 0.000000 0.000000 0.000000 -0.000000 0.000000 0.000000 -0.000000 0.000000 0.000000 -0.000000 0.000000 0.000000 -0.000000 0.000000 0.000000 0.000000 0.000000 0.000000 0.000000 0.000000 0.000000 -0.000000 0.000000 42.826106 -0.000000 0.000000 0.000000 -0.000000 0.000000 0.000000 0.000000 0.000000 0.000000 -0.000000 0.000000 42.826106 -0.000000 0.000000 0.000000 -0.000000 0.000000 0.000000 0.000000 0.000000 0.000000
-44.616927 68.160065 330.917618 0.118383 -0.013734 -43.102645 -0.095820 -0.070864 43.102600 -0.000000 0.000000 0.000000 -0.000000 0.000000 0.000000 0.000000 0.000000 0.000000 -0.000000 0.000000 0.000000 0.551774 0.743708 0.046319 -2.417639 0.988389 0.335489 1.331309 -2.531116 -0.533081 0.000000 0.000000 0.000000 0.000000 0.000000 0.000000 0.043146 -1.194209 0.018042 -0.515979 3.166780 0.317984 4.003541 1.765103 -1.977055 -3.416192 -9.684652 2.295606 0.000000 0.000000 0.000000 0.000000 0.000000 0.000000 -0.095820 -0.070864 43.102600 -0.000000 0.000000 0.000000 1.998891 2.065395 -0.636557 0.000000 0.000000 0.000000 -0.095820 -0.070864 43.102600 -0.000000 0.000000 0.000000 -6.295819 6.940473 5.536069 0.000000 0.000000 0.000000
-44.545349 68.194145 330.936567 0.196491 -0.044227 -43.291670 -0.173347 -0.102545 43.291591 -0.000000 0.000000 0.000000 -0.000000 0.000000 0.000000 0.000000 0.000000 0.000000 -0.000000 0.000000 0.000000 1.017920 1.361084 0.078713 -4.647512 1.619018 0.471341 2.704089 -4.280658 -0.785821 0.000000 0.000000 0.000000 0.000000 0.000000 0.000000 0.060055 -1.929222 0.026055 -0.998200 5.242915 0.623592 7.100699 2.490793 -3.149975 -5.988787 -14.876064 3.491150 0.000000 0.000000 0.000000 0.000000 0.000000 0.000000 -0.173347 -0.102545 43.291591 -0.000000 0.000000 0.000000 2.987725 3.097957 -0.926505 0.000000 0.000000 0.000000 -0.173347 -0.102545 43.291591 -0.000000 0.000000 0.000000 -12.187931 12.305981 10.889178 0.000000 0.000000 0.000000
-44.500704 68.225678 330.964870 0.234232 -0.091522 -43.394840 -0.233079 -0.094420 43.394835 -0.000000 0.000000 0.000000 -0.000000 0.000000 0.000000 0.000000 0.000000 0.000000 -0.000000 0.000000 0.000000 1.397117 1.849773 0.100012 -6.694191 1.921023 0.406479 4.152196 -5.257364 -0.761803 0.000000 0.000000 0.000000 0.000000 0.000000 0.000000 0.051748 -2.237343 0.023889 -1.442942 6.267290 0.897433 8.580360 1.627920 -3.186523 -7.522879 -15.205087 3.506629 0.000000 0.000000 0.000000 0.000000 0.000000 0.000000 -0.872207 -0.814395 43.407907 0.959059 0.083806 -0.018842 3.090313 3.259428 -0.866047 0.000000 0.000000 0.000000 -0.233079 -0.094420 43.394835 -0.000000 0.000000 0.000000 -17.036362 16.020614 15.407294 0.000000 0.000000 0.000000
-44.482993 68.254665 331.002529 0.231506 -0.155669 -43.413591 -0.275153 -0.046026 43.413795 -0.000000 0.000000 0.000000 -0.000000 0.000000 0.000000 0.000000 0.000000 0.000000 -0.255615 -0.927772 0.282879 1.961107 3.126034 -0.202094 -8.568288 1.915823 0.138692 5.698426 -5.456891 -0.467705 0.000000 0.000000 0.000000 0.000000 0.000000 0.000000 0.018379 -2.131858 0.011543 -1.845073 6.258577 1.122245 8.184845 -0.931297 -2.075581 -7.755205 -10.642692 2.470830 0.000000 0.000000 0.000000 0.000000 0.000000 0.000000 -1.128715 -0.882593 43.407416 1.194950 0.021131 -0.000759 2.322417 2.569397 -0.448535 0.000000 0.000000 0.000000 -0.855450 -0.725125 43.184218 0.887860 0.098014 0.224912 -20.475976 18.355933 18.700056 0.000000 0.000000 0.000000
-44.492216 68.281106 331.049543 0.188202 -0.236719 -43.349138 -0.299351 0.042948 43.349639 -0.000000 0.000000 0.000000 -0.000000 0.000000 0.000000 0.000000 0.000000 0.000000 -0.398158 -1.090651 0.347605 2.313722 3.512455 -0.273463 -10.284663 1.616248 -0.336803 7.354423 -4.858817 0.084987 0.000000 0.000000 0.000000 0.000000 0.000000 0.000000 -0.040746 -1.607958 -0.010867 -2.199596 5.213524 1.282464 6.232072 -4.774263 -0.195209 -6.543256 -1.663562 0.654549 0.000000 0.000000 0.000000 0.000000 0.000000 0.000000 -1.368690 -0.844137 43.312902 1.386561 -0.088178 0.030328 0.596238 0.909870 0.339304 0.000000 0.000000 0.000000 -1.119181 -0.691396 43.041283 1.915312 -0.348954 0.484253 -23.180354 20.006106 20.581284 0.000000 0.000000 0.000000
-44.544714 68.305133 331.094682 0.091561 -0.331760 -43.067297 -0.293436 0.179844 43.068023 -0.000000 0.000000 0.000000 -0.000000 0.000000 0.000000 0.000000 0.000000 0.000000 -0.961128 -1.448842 0.527042 3.229403 4.168992 -0.488007 -12.061691 -1.195701 -2.250155 8.527607 1.063906 2.061960 0.000000 0.000000 0.000000 0.000000 0.000000 0.000000 -0.354620 -1.328503 -0.122971 -2.573087 3.333976 1.565013 4.944478 -12.060495 3.614666 -3.936801 21.769012 -3.977270 0.000000 0.000000 0.000000 0.000000 0.000000 0.000000 -1.583440 -0.665719 42.986844 1.520155 -0.261094 0.079172 -3.019698 -2.671992 1.937046 0.000000 0.000000 0.000000 -1.465936 -0.529342 42.653146 2.369093 -0.789388 0.684411 -24.344173 21.148127 21.817933 0.000000 0.000000 0.000000
-44.565649 68.337929 331.032739 0.011655 -0.301437 -42.894510 -0.213713 0.212902 42.894938 -0.000000 0.000000 0.000000 -0.000000 0.000000 0.000000 0.000000 0.000000 0.000000 -1.393828 -1.637718 0.640853 3.144253 4.280061 -0.573542 -12.607233 -1.973944 -3.062694 11.134242 2.862164 2.885139 0.000000 0.000000 0.000000 0.000000 0.000000 0.000000 -0.000000 0.000000 0.000000 -3.162838 -2.151928 1.134120 2.209257 -11.574893 4.903703 -1.836812 35.468308 -5.127608 0.000000 0.000000 0.000000 0.000000 0.000000 0.000000 -1.644385 -0.725209 42.806012 2.584044 -0.484189 0.276510 -11.212775 -10.342656 3.831771 0.000000 0.000000 0.000000 -1.758345 -0.578593 42.357811 2.913772 -1.205183 0.914829 -23.240637 21.047593 20.862056 0.000000 0.000000 0.000000
-44.634797 68.337647 331.171294 -0.145347 -0.516239 -42.611976 -0.242543 0.478332 42.612334 -0.000000 0.000000 0.000000 0.662615 -0.732253 0.150803 0.000000 0.000000 0.000000 -1.360021 -1.547026 0.613079 2.546268 3.821177 -0.517317 -14.528950 -0.632278 -3.110870 14.272609 0.591394 2.966298 0.000000 0.000000 0.000000 0.000000 0.000000 0.000000 -0.751250 2.892601 -0.249249 -2.009951 -8.622192 0.827986 -2.784799 -12.259804 6.720753 4.276637 40.950265 -7.591998 0.000000 0.000000 0.000000 0.000000 0.000000 0.000000 -2.043200 -0.250042 42.428438 2.860910 -0.992102 0.441220 -17.184432 -16.710574 4.775060 0.000000 0.000000 0.000000 -2.201263 -0.233527 41.960350 3.431140 -1.600043 1.105481 -20.294489 19.602593 18.086935 0.000000 0.000000 0.000000
-44.689944 68.288588 331.617155 -0.256561 -1.146393 -42.068372 -0.577689 1.022908 42.070962 -0.239914 -1.098952 0.003746 1.368316 0.057421 0.155549 0.000000 0.000000 0.000000 -0.833155 -0.107970 0.495656 0.982463 3.117099 -0.284202 -16.665567 1.724535 -2.709730 16.184079 -3.991052 2.600123 0.000000 0.000000 0.000000 0.000000 0.000000 0.000000 -0.081948 6.296585 -0.112523 -1.101651 -12.671547 0.048662 -7.371016 -15.319739 9.168949 12.838478 42.585777 -12.949393 0.000000 0.000000 0.000000 0.000000 0.000000 0.000000 -3.176208 0.898521 41.672059 3.230836 -1.967092 0.768659 -20.614444 -20.287430 5.010625 0.000000 0.000000 0.000000 -3.142000 0.663219 41.283752 3.841899 -2.101631 1.278309 -15.110693 16.259507 13.391442 0.000000 0.000000 0.000000
